# xmcd
#
# Track frame offsets: 
#        183
#        22908
#        39945
#        56133
#        74433
#        90483
#        104395
#        115233
#        135108
#        162445
#        183220
#        201408
#        212283
#        243108
#        261520
#        276445
#
# Disc length: 3877 seconds
#
# Revision: 4
# Processed by: cddbd v1.5.2PL0 Copyright (c) Steve Scherf et al.
# Submitted via: ExactAudioCopy v1.0b6
#
DISCID=dc0f2310
DTITLE=Alex Bollard - After Midnight
DYEAR=1991
DGENRE=Blues
TTITLE0=Alex Bollard - Still Got the Blues (G. Moore)
TTITLE1=Alex Bollard - Money for Nothing (M. Knopfler)
TTITLE2=Alex Bollard - I'm in the Mood (J.L. Hooker-B. Besman)
TTITLE3=Alex Bollard - Oye Come Va (Listen How it Goes) (T. Puente)
TTITLE4=Alex Bollard - I Shot the Sheriff (B. Marley)
TTITLE5=Alex Bollard - Oh Well (P. Green)
TTITLE6=Alex Bollard - Strange Brew (E. Clapton-F. Pappalardi-G. Colli
TTITLE6=ns)
TTITLE7=Alex Bollard - Sultans of Swing (M. Knopfler)
TTITLE8=Layla (E. Clapton - B. Gordon)
TTITLE9=Alex Bollard - The Healer (J.L. Hooker)
TTITLE10=Alex Bollard - Right Next Door (Because of Me) (R. Cray)
TTITLE11=Alex Bollard - Confidence Man (J. Hiatt)
TTITLE12=Alex Bollard - Tunnel of Love (M. Knopfler)
TTITLE13=Alex Bollard - After Midnight (J.J. Cale)
TTITLE14=Alex Bollard - Evil Ways (C. Henry)
TTITLE15=Alex Bollard - Sunshine of your Love (J. Bruce-P. Brown-E. Cl
TTITLE15=apton)
EXTD=YEAR: 1991
EXTT0=
EXTT1=
EXTT2=
EXTT3=
EXTT4=
EXTT5=
EXTT6=
EXTT7=
EXTT8=
EXTT9=
EXTT10=
EXTT11=
EXTT12=
EXTT13=
EXTT14=
EXTT15=
PLAYORDER=
